<svg version="1.1" id="Слой_1" xmlns="http://www.w3.org/2000/svg" xmlns:xlink="http://www.w3.org/1999/xlink" x="0" y="0" width="32" height="32" viewBox="0 0 32 32" xml:space="preserve"><path fill="currentColor" d="M32 16c0 8.8-7.2 16-16 16S0 24.8 0 16 7.2 0 16 0s16 7.2 16 16zm-21.3-1.5c-1.6.7-3.2 1.5-4.7 2.3-.8.6.3 1 1.2 1.4.2.1.3.1.5.2.1 0 .2.1.4.1 1.1.3 2.3.7 3.4.2 1.7-1 3.4-2.2 5-3.3.5-.4 1.1-.8 1.6-1.1 0 0 .1 0 .1-.1.5-.3 1.5-1 1.1 0-.9 1-1.9 1.9-2.9 2.7-.7.6-1.3 1.2-2 1.8-.6.5-1.1 1.4-.5 2 1.4 1 2.9 2 4.4 3 .5.3 1 .6 1.4 1 .8.6 2.1.1 2.2-.9.1-.5.2-.9.2-1.4.4-2.6.9-5.1 1.3-7.7.1-.4.1-.8.2-1.2.1-1 .3-2 .3-2.9-.1-1-1.3-.8-2-.5-3.4 1.3-6.8 2.7-10.1 4.1-.3 0-.7.2-1.1.3z"/></svg>