<?xml version="1.0" encoding="utf-8"?><svg xmlns="http://www.w3.org/2000/svg" width="32" height="32" viewBox="0 0 32 32"><path fill="currentColor" d="M16 13.2c1.6 0 2.8 1.3 2.8 2.8 0 1.6-1.3 2.8-2.8 2.8-1.6 0-2.8-1.3-2.8-2.8 0-1.6 1.2-2.8 2.8-2.8z"/><path fill="currentColor" d="M22.9 12.6c0-.8-.2-1.3-.3-1.6-.2-.4-.3-.7-.6-1-.3-.3-.6-.5-1-.6-.3-.1-.8-.3-1.6-.3H12.5c-.8 0-1.3.2-1.6.3-.4.2-.7.3-1 .6s-.5.6-.6 1c-.1.3-.3.8-.3 1.6v6.8c0 .8.2 1.3.3 1.6.2.4.3.7.6 1s.6.5 1 .6c.3.1.8.3 1.6.3h6.8c.8 0 1.3-.2 1.6-.3.4-.2.7-.3 1-.6.3-.3.5-.6.6-1 .1-.3.3-.8.3-1.6V16c.2-2.3.2-2.5.1-3.4zM16 20.4c-2.4 0-4.4-2-4.4-4.4 0-2.1 1.5-3.9 3.5-4.3.3-.1.6-.1.9-.1 2.4 0 4.4 2 4.4 4.4s-2 4.4-4.4 4.4zm4.6-7.9c-.6 0-1-.5-1-1 0-.6.5-1 1-1 .6 0 1 .5 1 1s-.5 1-1 1z"/><path fill="currentColor" d="M16 0C7.2 0 0 7.2 0 16s7.2 16 16 16 16-7.2 16-16S24.8 0 16 0zm-3.5 7.5c.9 0 1.2-.1 3.5-.1s2.6 0 3.5.1c.9 0 1.5.2 2.1.4s1 .5 1.5 1 .8 1 1 1.5.4 1.2.4 2.1c0 .9.1 1.2.1 3.5s0 2.6-.1 3.5c0 .9-.2 1.5-.4 2.1-.2.6-.5 1-1 1.5s-.9.8-1.5 1c-.5.2-1.2.4-2.1.4s-1.2.1-3.5.1-2.6 0-3.5-.1c-.9 0-1.5-.2-2.1-.4-.6-.2-1-.5-1.5-1s-.8-1-1-1.5-.4-1.2-.4-2.1-.1-1.2-.1-3.5 0-2.6.1-3.5c0-.9.2-1.5.4-2.1.2-.6.5-1 1-1.5s1-.8 1.5-1c.6-.2 1.2-.3 2.1-.4z"/></svg>