<?xml version="1.0" encoding="utf-8"?>
<!-- Generator: Adobe Illustrator 22.1.0, SVG Export Plug-In . SVG Version: 6.00 Build 0)  -->
<svg version="1.1" id="Слой_1" xmlns="http://www.w3.org/2000/svg" xmlns:xlink="http://www.w3.org/1999/xlink" x="0px" y="0px"
	 width="32px" height="32px" viewBox="0 0 32 32" enable-background="new 0 0 32 32" xml:space="preserve">
<path fill="#FFFFFF" d="M16,13.2c1.6,0,2.8,1.3,2.8,2.8c0,1.6-1.3,2.8-2.8,2.8c-1.6,0-2.8-1.3-2.8-2.8C13.2,14.4,14.4,13.2,16,13.2z
	"/>
<g>
	<g>
		<path fill="#FFFFFF" d="M22.9,12.6c0-0.8-0.2-1.3-0.3-1.6c-0.2-0.4-0.3-0.7-0.6-1c-0.3-0.3-0.6-0.5-1-0.6
			c-0.3-0.1-0.8-0.3-1.6-0.3c-0.9,0-1.2,0-3.4,0h-0.3c-0.2,0-0.3,0-0.5,0l0,0c-1.6,0-1.9,0-2.7,0s-1.3,0.2-1.6,0.3
			c-0.4,0.2-0.7,0.3-1,0.6s-0.5,0.6-0.6,1C9.2,11.3,9,11.8,9,12.6c0,0.9,0,1.2,0,3.4c0,2.3,0,2.5,0,3.4c0,0.8,0.2,1.3,0.3,1.6
			c0.2,0.4,0.3,0.7,0.6,1s0.6,0.5,1,0.6c0.3,0.1,0.8,0.3,1.6,0.3c0.9,0,1.2,0,3.4,0c2.3,0,2.5,0,3.4,0c0.8,0,1.3-0.2,1.6-0.3
			c0.4-0.2,0.7-0.3,1-0.6c0.3-0.3,0.5-0.6,0.6-1c0.1-0.3,0.3-0.8,0.3-1.6c0-0.9,0-1.2,0-3.4C23,13.7,23,13.5,22.9,12.6z M16,20.4
			c-2.4,0-4.4-2-4.4-4.4c0-2.1,1.5-3.9,3.5-4.3c0.3-0.1,0.6-0.1,0.9-0.1c2.4,0,4.4,2,4.4,4.4S18.4,20.4,16,20.4z M20.6,12.5
			c-0.6,0-1-0.5-1-1c0-0.6,0.5-1,1-1l0,0c0.6,0,1,0.5,1,1S21.1,12.5,20.6,12.5z"/>
	</g>
</g>
<path fill="#FFFFFF" d="M16,0C7.2,0,0,7.2,0,16s7.2,16,16,16s16-7.2,16-16S24.8,0,16,0z M12.5,7.5c0.9,0,1.2-0.1,3.5-0.1l0,0
	c2.3,0,2.6,0,3.5,0.1c0.9,0,1.5,0.2,2.1,0.4s1,0.5,1.5,1s0.8,1,1,1.5s0.4,1.2,0.4,2.1c0,0.9,0.1,1.2,0.1,3.5s0,2.6-0.1,3.5
	c0,0.9-0.2,1.5-0.4,2.1c-0.2,0.6-0.5,1-1,1.5s-0.9,0.8-1.5,1c-0.5,0.2-1.2,0.4-2.1,0.4s-1.2,0.1-3.5,0.1s-2.6,0-3.5-0.1
	c-0.9,0-1.5-0.2-2.1-0.4c-0.6-0.2-1-0.5-1.5-1s-0.8-1-1-1.5s-0.4-1.2-0.4-2.1S7.4,18.3,7.4,16s0-2.6,0.1-3.5c0-0.9,0.2-1.5,0.4-2.1
	c0.2-0.6,0.5-1,1-1.5s1-0.8,1.5-1C11,7.7,11.6,7.6,12.5,7.5z"/>
</svg>
