<?xml version="1.0" encoding="utf-8"?>
<!-- Generator: Adobe Illustrator 22.1.0, SVG Export Plug-In . SVG Version: 6.00 Build 0)  -->
<svg version="1.1" id="Слой_1" xmlns="http://www.w3.org/2000/svg" xmlns:xlink="http://www.w3.org/1999/xlink" x="0px" y="0px"
	 width="17.1px" height="21.2px" viewBox="0 0 17.1 21.2" enable-background="new 0 0 17.1 21.2" xml:space="preserve">
<path fill="none" stroke="#999999" stroke-width="2" stroke-linecap="round" stroke-linejoin="round" d="M16.1,8.8
	c0,6.1-7.6,11.3-7.6,11.3S1,14.9,1,8.8c0-2.1,0.8-4.1,2.2-5.5C4.6,1.8,6.6,1,8.6,1c2,0,3.9,0.8,5.4,2.3C15.3,4.8,16.1,6.8,16.1,8.8z
	"/>
<path fill="none" stroke="#999999" stroke-width="2" stroke-linecap="round" stroke-linejoin="round" d="M8.6,11.5
	c1.4,0,2.5-1.2,2.5-2.6c0-1.4-1.1-2.6-2.5-2.6C7.2,6.2,6,7.4,6,8.8C6,10.3,7.2,11.5,8.6,11.5z"/>
</svg>
