<?xml version="1.0" encoding="utf-8"?>
<!-- Generator: Adobe Illustrator 22.1.0, SVG Export Plug-In . SVG Version: 6.00 Build 0)  -->
<svg version="1.1" id="Слой_1" xmlns="http://www.w3.org/2000/svg" xmlns:xlink="http://www.w3.org/1999/xlink" x="0px" y="0px"
	 width="32px" height="32px" viewBox="0 0 32 32" enable-background="new 0 0 32 32" xml:space="preserve">
<path fill="#FFFFFF" d="M32,16c0,8.8-7.2,16-16,16S0,24.8,0,16S7.2,0,16,0S32,7.2,32,16z M10.7,14.5C9.1,15.2,7.5,16,6,16.8l0,0
	c-0.8,0.6,0.3,1,1.2,1.4c0.2,0.1,0.3,0.1,0.5,0.2c0.1,0,0.2,0.1,0.4,0.1c1.1,0.3,2.3,0.7,3.4,0.2c1.7-1,3.4-2.2,5-3.3
	c0.5-0.4,1.1-0.8,1.6-1.1c0,0,0.1,0,0.1-0.1c0.5-0.3,1.5-1,1.1,0c-0.9,1-1.9,1.9-2.9,2.7c-0.7,0.6-1.3,1.2-2,1.8
	c-0.6,0.5-1.1,1.4-0.5,2c1.4,1,2.9,2,4.4,3c0.5,0.3,1,0.6,1.4,1c0.8,0.6,2.1,0.1,2.2-0.9c0.1-0.5,0.2-0.9,0.2-1.4
	c0.4-2.6,0.9-5.1,1.3-7.7c0.1-0.4,0.1-0.8,0.2-1.2c0.1-1,0.3-2,0.3-2.9c-0.1-1-1.3-0.8-2-0.5c-3.4,1.3-6.8,2.7-10.1,4.1
	C11.5,14.2,11.1,14.4,10.7,14.5z"/>
</svg>
