<?xml version="1.0" encoding="utf-8"?><svg xmlns="http://www.w3.org/2000/svg" width="17.1" height="21.2" viewBox="0 0 17.1 21.2"><path fill="none" stroke="currentColor" stroke-width="2" stroke-linecap="round" stroke-linejoin="round" d="M16.1 8.8c0 6.1-7.6 11.3-7.6 11.3S1 14.9 1 8.8c0-2.1.8-4.1 2.2-5.5C4.6 1.8 6.6 1 8.6 1c2 0 3.9.8 5.4 2.3 1.3 1.5 2.1 3.5 2.1 5.5z"/><path fill="none" stroke="currentColor" stroke-width="2" stroke-linecap="round" stroke-linejoin="round" d="M8.6 11.5c1.4 0 2.5-1.2 2.5-2.6 0-1.4-1.1-2.6-2.5-2.6C7.2 6.2 6 7.4 6 8.8c0 1.5 1.2 2.7 2.6 2.7z"/></svg>