<?xml version="1.0" encoding="utf-8"?><svg viewBox="0 0 32 32" xmlns="http://www.w3.org/2000/svg" xmlns:xlink="http://www.w3.org/1999/xlink"><style>:root>svg{display:none}:root>svg:target{display:block}</style><svg viewBox="0 0 10 20" id="arrow-left" xmlns="http://www.w3.org/2000/svg"><path fill="currentColor" d="M9 20c-.3 0-.5-.1-.7-.3l-8-9c-.3-.4-.3-1 0-1.3l8-9c.4-.4 1-.5 1.4-.1.4.4.5 1 .1 1.4L2.3 10l7.4 8.3c.4.4.3 1-.1 1.4-.1.2-.4.3-.6.3z"/></svg><svg viewBox="0 0 10 20" id="arrow-right" xmlns="http://www.w3.org/2000/svg"><path fill="currentColor" d="M1 20c-.2 0-.5-.1-.7-.3-.4-.4-.4-1-.1-1.4L7.7 10 .3 1.7C-.1 1.3 0 .7.4.3c.4-.4 1-.3 1.4.1l8 9c.3.4.3 1 0 1.3l-8 9c-.3.2-.5.3-.8.3z"/></svg><svg viewBox="0 0 32 32" id="facebook" xmlns="http://www.w3.org/2000/svg"><path fill="currentColor" d="M32 16c0-8.8-7.2-16-16-16S0 7.2 0 16c0 8 5.8 14.6 13.5 15.8V20.6H9.4V16h4.1v-3.5c0-4 2.4-6.2 6-6.2 1.8 0 3.6.3 3.6.3v3.9h-2c-2 0-2.6 1.2-2.6 2.5v3h4.4l-.7 4.6h-3.7v11.2C26.1 30.6 32 24 32 16z"/></svg><svg viewBox="0 0 32 32" id="instagram" xmlns="http://www.w3.org/2000/svg"><path fill="currentColor" d="M16 13.2c1.6 0 2.8 1.3 2.8 2.8 0 1.6-1.3 2.8-2.8 2.8-1.6 0-2.8-1.3-2.8-2.8 0-1.6 1.2-2.8 2.8-2.8z"/><path fill="currentColor" d="M22.9 12.6c0-.8-.2-1.3-.3-1.6-.2-.4-.3-.7-.6-1-.3-.3-.6-.5-1-.6-.3-.1-.8-.3-1.6-.3H12.5c-.8 0-1.3.2-1.6.3-.4.2-.7.3-1 .6s-.5.6-.6 1c-.1.3-.3.8-.3 1.6v6.8c0 .8.2 1.3.3 1.6.2.4.3.7.6 1s.6.5 1 .6c.3.1.8.3 1.6.3h6.8c.8 0 1.3-.2 1.6-.3.4-.2.7-.3 1-.6.3-.3.5-.6.6-1 .1-.3.3-.8.3-1.6V16c.2-2.3.2-2.5.1-3.4zM16 20.4c-2.4 0-4.4-2-4.4-4.4 0-2.1 1.5-3.9 3.5-4.3.3-.1.6-.1.9-.1 2.4 0 4.4 2 4.4 4.4s-2 4.4-4.4 4.4zm4.6-7.9c-.6 0-1-.5-1-1 0-.6.5-1 1-1 .6 0 1 .5 1 1s-.5 1-1 1z"/><path fill="currentColor" d="M16 0C7.2 0 0 7.2 0 16s7.2 16 16 16 16-7.2 16-16S24.8 0 16 0zm-3.5 7.5c.9 0 1.2-.1 3.5-.1s2.6 0 3.5.1c.9 0 1.5.2 2.1.4s1 .5 1.5 1 .8 1 1 1.5.4 1.2.4 2.1c0 .9.1 1.2.1 3.5s0 2.6-.1 3.5c0 .9-.2 1.5-.4 2.1-.2.6-.5 1-1 1.5s-.9.8-1.5 1c-.5.2-1.2.4-2.1.4s-1.2.1-3.5.1-2.6 0-3.5-.1c-.9 0-1.5-.2-2.1-.4-.6-.2-1-.5-1.5-1s-.8-1-1-1.5-.4-1.2-.4-2.1-.1-1.2-.1-3.5 0-2.6.1-3.5c0-.9.2-1.5.4-2.1.2-.6.5-1 1-1.5s1-.8 1.5-1c.6-.2 1.2-.3 2.1-.4z"/></svg><svg viewBox="0 0 17.1 21.2" id="mark" xmlns="http://www.w3.org/2000/svg"><path fill="none" stroke="currentColor" stroke-width="2" stroke-linecap="round" stroke-linejoin="round" d="M16.1 8.8c0 6.1-7.6 11.3-7.6 11.3S1 14.9 1 8.8c0-2.1.8-4.1 2.2-5.5C4.6 1.8 6.6 1 8.6 1c2 0 3.9.8 5.4 2.3 1.3 1.5 2.1 3.5 2.1 5.5z"/><path fill="none" stroke="currentColor" stroke-width="2" stroke-linecap="round" stroke-linejoin="round" d="M8.6 11.5c1.4 0 2.5-1.2 2.5-2.6 0-1.4-1.1-2.6-2.5-2.6C7.2 6.2 6 7.4 6 8.8c0 1.5 1.2 2.7 2.6 2.7z"/></svg><svg viewBox="0 0 32 32" id="telegram" xmlns="http://www.w3.org/2000/svg"><path fill="currentColor" d="M32 16c0 8.8-7.2 16-16 16S0 24.8 0 16 7.2 0 16 0s16 7.2 16 16zm-21.3-1.5c-1.6.7-3.2 1.5-4.7 2.3-.8.6.3 1 1.2 1.4.2.1.3.1.5.2.1 0 .2.1.4.1 1.1.3 2.3.7 3.4.2 1.7-1 3.4-2.2 5-3.3.5-.4 1.1-.8 1.6-1.1 0 0 .1 0 .1-.1.5-.3 1.5-1 1.1 0-.9 1-1.9 1.9-2.9 2.7-.7.6-1.3 1.2-2 1.8-.6.5-1.1 1.4-.5 2 1.4 1 2.9 2 4.4 3 .5.3 1 .6 1.4 1 .8.6 2.1.1 2.2-.9.1-.5.2-.9.2-1.4.4-2.6.9-5.1 1.3-7.7.1-.4.1-.8.2-1.2.1-1 .3-2 .3-2.9-.1-1-1.3-.8-2-.5-3.4 1.3-6.8 2.7-10.1 4.1-.3 0-.7.2-1.1.3z"/></svg></svg>