<svg version="1.1" id="Слой_1" xmlns="http://www.w3.org/2000/svg" xmlns:xlink="http://www.w3.org/1999/xlink" x="0" y="0" width="188.5" height="23.1" viewBox="0 0 188.5 23.1" xml:space="preserve"><path fill="#0EC261" d="M17.3 22.8h-4.4l-8.6-14v14H0V1.5h4.4l8.6 14v-14h4.4v21.3zm10.9.3c-2.3 0-4.2-.7-5.7-2.1-1.5-1.4-2.2-3.3-2.2-5.7v-.4c0-1.6.3-3 .9-4.3.6-1.3 1.5-2.2 2.6-2.9 1.1-.7 2.4-1 3.9-1 2.2 0 3.9.7 5.1 2.1 1.2 1.4 1.9 3.3 1.9 5.8v1.7H24.6c.1 1 .5 1.9 1.2 2.5.7.6 1.6.9 2.6.9 1.6 0 2.9-.6 3.8-1.8l2.1 2.3c-.6.9-1.5 1.6-2.6 2.1-1 .6-2.2.8-3.5.8zm-.5-13c-.8 0-1.5.3-2.1.8-.5.6-.8 1.4-1 2.4h5.9V13c0-.9-.3-1.7-.8-2.2-.4-.4-1.1-.7-2-.7zm16.7 13c-2.3 0-4.2-.7-5.7-2.1-1.5-1.4-2.2-3.3-2.2-5.7v-.4c0-1.6.3-3 .9-4.3.6-1.3 1.5-2.2 2.6-2.9 1.1-.7 2.4-1 3.9-1 2.2 0 3.9.7 5.1 2.1 1.2 1.4 1.9 3.3 1.9 5.8v1.7h-10c.1 1 .5 1.9 1.2 2.5.7.6 1.6.9 2.6.9 1.6 0 2.9-.6 3.8-1.8l2.1 2.3c-.6.9-1.5 1.6-2.6 2.1-1.1.6-2.3.8-3.6.8zm-.5-13c-.8 0-1.5.3-2.1.8-.5.6-.8 1.4-1 2.4h5.9V13c0-.9-.3-1.7-.8-2.2-.4-.4-1.1-.7-2-.7zm8.8 4.7c0-2.5.6-4.4 1.7-5.9S57 6.7 59 6.7c1.5 0 2.8.6 3.8 1.7V.3H67v22.5h-3.8l-.2-1.7c-1.1 1.3-2.4 2-4.1 2-1.9 0-3.4-.7-4.5-2.2-1.1-1.5-1.7-3.5-1.7-6.1zm4.2.3c0 1.5.3 2.6.8 3.4.5.8 1.3 1.2 2.3 1.2 1.3 0 2.2-.6 2.8-1.7v-6.3c-.5-1.1-1.4-1.7-2.7-1.7-2.1.1-3.2 1.8-3.2 5.1zm22 7.7V10.1h-2.4V7h2.4V5.6c0-1.8.5-3.2 1.5-4.1 1-1 2.5-1.5 4.3-1.5.6 0 1.3.1 2.2.3v3.3c-.4-.1-.8-.1-1.3-.1-1.6 0-2.4.7-2.4 2.2V7h3.1v3.1h-3.1v12.7h-4.3zm8.9-8.1c0-1.6.3-3 .9-4.2.6-1.2 1.5-2.2 2.6-2.9 1.1-.7 2.5-1 4-1 2.1 0 3.9.7 5.2 2 1.4 1.3 2.1 3.1 2.3 5.3V15c0 2.4-.7 4.4-2 5.9-1.4 1.5-3.2 2.2-5.5 2.2s-4.1-.7-5.5-2.2c-1.4-1.5-2-3.5-2-6v-.2zm4.3.3c0 1.5.3 2.7.8 3.5.6.8 1.4 1.2 2.4 1.2s1.8-.4 2.4-1.2c.6-.8.9-2.1.9-3.8 0-1.5-.3-2.6-.9-3.4-.6-.8-1.4-1.2-2.4-1.2s-1.8.4-2.4 1.2c-.6.8-.8 2.1-.8 3.7zm22.3-4.1c-.6-.1-1.1-.1-1.5-.1-1.6 0-2.7.5-3.2 1.6v10.4h-4.2V7h4l.1 1.9c.9-1.5 2-2.2 3.5-2.2.5 0 .9.1 1.3.2v4zm8.8 3.9c0-2.5.6-4.4 1.7-5.9s2.6-2.2 4.6-2.2c1.5 0 2.8.6 3.8 1.7V.3h4.2v22.5h-3.8l-.2-1.7c-1.1 1.3-2.4 2-4.1 2-1.9 0-3.4-.7-4.5-2.2-1.1-1.5-1.7-3.5-1.7-6.1zm4.3.3c0 1.5.3 2.6.8 3.4.5.8 1.3 1.2 2.3 1.2 1.3 0 2.2-.6 2.8-1.7v-6.3c-.5-1.1-1.4-1.7-2.7-1.7-2.2.1-3.2 1.8-3.2 5.1zm22.2-4.2c-.6-.1-1.1-.1-1.5-.1-1.6 0-2.7.5-3.2 1.6v10.4h-4.2V7h4l.1 1.9c.8-1.5 2-2.2 3.5-2.2.5 0 .9.1 1.3.2v4zm6.5 11.9H152V7h4.2v15.8zm-4.5-19.9c0-.6.2-1.2.6-1.6.4-.4 1-.6 1.7-.6s1.3.2 1.7.6c.4.4.6.9.6 1.6 0 .6-.2 1.2-.7 1.6-.4.4-1 .6-1.7.6s-1.3-.2-1.7-.6c-.3-.5-.5-1-.5-1.6zm13.9 14.7l3-10.6h4.4l-5.3 15.8h-4L158.3 7h4.4l2.9 10.6zm16.4 5.5c-2.3 0-4.2-.7-5.7-2.1-1.5-1.4-2.2-3.3-2.2-5.7v-.4c0-1.6.3-3 .9-4.3.6-1.3 1.5-2.2 2.6-2.9 1.1-.7 2.4-1 3.9-1 2.2 0 3.9.7 5.1 2.1 1.2 1.4 1.9 3.3 1.9 5.8v1.7h-10.1c.1 1 .5 1.9 1.2 2.5.7.6 1.6.9 2.6.9 1.6 0 2.9-.6 3.8-1.8l2.1 2.3c-.6.9-1.5 1.6-2.6 2.1-1 .6-2.2.8-3.5.8zm-.5-13c-.8 0-1.5.3-2.1.8-.5.6-.8 1.4-1 2.4h5.9V13c0-.9-.3-1.7-.8-2.2-.4-.4-1.1-.7-2-.7z"/></svg>