<?xml version="1.0" encoding="utf-8"?>
<!-- Generator: Adobe Illustrator 22.1.0, SVG Export Plug-In . SVG Version: 6.00 Build 0)  -->
<svg version="1.1" id="Слой_1" xmlns="http://www.w3.org/2000/svg" xmlns:xlink="http://www.w3.org/1999/xlink" x="0px" y="0px"
	 width="188.5px" height="23.1px" viewBox="0 0 188.5 23.1" enable-background="new 0 0 188.5 23.1" xml:space="preserve">
<path fill="#0EC261" d="M17.3,22.8h-4.4l-8.6-14v14H0V1.5h4.4L13,15.5V1.5h4.4V22.8z M28.2,23.1c-2.3,0-4.2-0.7-5.7-2.1
	c-1.5-1.4-2.2-3.3-2.2-5.7v-0.4c0-1.6,0.3-3,0.9-4.3c0.6-1.3,1.5-2.2,2.6-2.9c1.1-0.7,2.4-1,3.9-1c2.2,0,3.9,0.7,5.1,2.1
	c1.2,1.4,1.9,3.3,1.9,5.8v1.7H24.6c0.1,1,0.5,1.9,1.2,2.5c0.7,0.6,1.6,0.9,2.6,0.9c1.6,0,2.9-0.6,3.8-1.8l2.1,2.3
	c-0.6,0.9-1.5,1.6-2.6,2.1C30.7,22.9,29.5,23.1,28.2,23.1z M27.7,10.1c-0.8,0-1.5,0.3-2.1,0.8c-0.5,0.6-0.8,1.4-1,2.4h5.9V13
	c0-0.9-0.3-1.7-0.8-2.2C29.3,10.4,28.6,10.1,27.7,10.1z M44.4,23.1c-2.3,0-4.2-0.7-5.7-2.1c-1.5-1.4-2.2-3.3-2.2-5.7v-0.4
	c0-1.6,0.3-3,0.9-4.3c0.6-1.3,1.5-2.2,2.6-2.9c1.1-0.7,2.4-1,3.9-1c2.2,0,3.9,0.7,5.1,2.1c1.2,1.4,1.9,3.3,1.9,5.8v1.7H40.9
	c0.1,1,0.5,1.9,1.2,2.5c0.7,0.6,1.6,0.9,2.6,0.9c1.6,0,2.9-0.6,3.8-1.8l2.1,2.3c-0.6,0.9-1.5,1.6-2.6,2.1
	C46.9,22.9,45.7,23.1,44.4,23.1z M43.9,10.1c-0.8,0-1.5,0.3-2.1,0.8c-0.5,0.6-0.8,1.4-1,2.4h5.9V13c0-0.9-0.3-1.7-0.8-2.2
	C45.5,10.4,44.8,10.1,43.9,10.1z M52.7,14.8c0-2.5,0.6-4.4,1.7-5.9c1.1-1.5,2.6-2.2,4.6-2.2c1.5,0,2.8,0.6,3.8,1.7V0.3H67v22.5h-3.8
	L63,21.1c-1.1,1.3-2.4,2-4.1,2c-1.9,0-3.4-0.7-4.5-2.2C53.3,19.4,52.7,17.4,52.7,14.8z M56.9,15.1c0,1.5,0.3,2.6,0.8,3.4
	c0.5,0.8,1.3,1.2,2.3,1.2c1.3,0,2.2-0.6,2.8-1.7v-6.3c-0.5-1.1-1.4-1.7-2.7-1.7C58,10.1,56.9,11.8,56.9,15.1z M78.9,22.8V10.1h-2.4
	V7h2.4V5.6c0-1.8,0.5-3.2,1.5-4.1c1-1,2.5-1.5,4.3-1.5c0.6,0,1.3,0.1,2.2,0.3l0,3.3c-0.4-0.1-0.8-0.1-1.3-0.1
	c-1.6,0-2.4,0.7-2.4,2.2V7h3.1v3.1h-3.1v12.7H78.9z M87.8,14.7c0-1.6,0.3-3,0.9-4.2c0.6-1.2,1.5-2.2,2.6-2.9c1.1-0.7,2.5-1,4-1
	c2.1,0,3.9,0.7,5.2,2c1.4,1.3,2.1,3.1,2.3,5.3l0,1.1c0,2.4-0.7,4.4-2,5.9c-1.4,1.5-3.2,2.2-5.5,2.2c-2.3,0-4.1-0.7-5.5-2.2
	c-1.4-1.5-2-3.5-2-6V14.7z M92.1,15c0,1.5,0.3,2.7,0.8,3.5c0.6,0.8,1.4,1.2,2.4,1.2c1,0,1.8-0.4,2.4-1.2c0.6-0.8,0.9-2.1,0.9-3.8
	c0-1.5-0.3-2.6-0.9-3.4c-0.6-0.8-1.4-1.2-2.4-1.2c-1,0-1.8,0.4-2.4,1.2C92.3,12.1,92.1,13.4,92.1,15z M114.4,10.9
	c-0.6-0.1-1.1-0.1-1.5-0.1c-1.6,0-2.7,0.5-3.2,1.6v10.4h-4.2V7h4l0.1,1.9c0.9-1.5,2-2.2,3.5-2.2c0.5,0,0.9,0.1,1.3,0.2L114.4,10.9z
	 M123.2,14.8c0-2.5,0.6-4.4,1.7-5.9c1.1-1.5,2.6-2.2,4.6-2.2c1.5,0,2.8,0.6,3.8,1.7V0.3h4.2v22.5h-3.8l-0.2-1.7
	c-1.1,1.3-2.4,2-4.1,2c-1.9,0-3.4-0.7-4.5-2.2C123.8,19.4,123.2,17.4,123.2,14.8z M127.5,15.1c0,1.5,0.3,2.6,0.8,3.4
	c0.5,0.8,1.3,1.2,2.3,1.2c1.3,0,2.2-0.6,2.8-1.7v-6.3c-0.5-1.1-1.4-1.7-2.7-1.7C128.5,10.1,127.5,11.8,127.5,15.1z M149.7,10.9
	c-0.6-0.1-1.1-0.1-1.5-0.1c-1.6,0-2.7,0.5-3.2,1.6v10.4h-4.2V7h4l0.1,1.9c0.8-1.5,2-2.2,3.5-2.2c0.5,0,0.9,0.1,1.3,0.2L149.7,10.9z
	 M156.2,22.8H152V7h4.2V22.8z M151.7,2.9c0-0.6,0.2-1.2,0.6-1.6c0.4-0.4,1-0.6,1.7-0.6c0.7,0,1.3,0.2,1.7,0.6
	c0.4,0.4,0.6,0.9,0.6,1.6c0,0.6-0.2,1.2-0.7,1.6c-0.4,0.4-1,0.6-1.7,0.6s-1.3-0.2-1.7-0.6C151.9,4,151.7,3.5,151.7,2.9z M165.6,17.6
	L168.6,7h4.4l-5.3,15.8h-4L158.3,7h4.4L165.6,17.6z M182,23.1c-2.3,0-4.2-0.7-5.7-2.1c-1.5-1.4-2.2-3.3-2.2-5.7v-0.4
	c0-1.6,0.3-3,0.9-4.3c0.6-1.3,1.5-2.2,2.6-2.9c1.1-0.7,2.4-1,3.9-1c2.2,0,3.9,0.7,5.1,2.1c1.2,1.4,1.9,3.3,1.9,5.8v1.7h-10.1
	c0.1,1,0.5,1.9,1.2,2.5c0.7,0.6,1.6,0.9,2.6,0.9c1.6,0,2.9-0.6,3.8-1.8l2.1,2.3c-0.6,0.9-1.5,1.6-2.6,2.1
	C184.5,22.9,183.3,23.1,182,23.1z M181.5,10.1c-0.8,0-1.5,0.3-2.1,0.8c-0.5,0.6-0.8,1.4-1,2.4h5.9V13c0-0.9-0.3-1.7-0.8-2.2
	C183.1,10.4,182.4,10.1,181.5,10.1z"/>
</svg>
